<svg width="60" height="61" viewBox="0 0 60 61" fill="none" xmlns="http://www.w3.org/2000/svg">
<path d="M27.4664 26.191L27.3436 36.4072C27.313 37.2948 27.6565 38.1545 28.2904 38.7767C28.9243 39.3989 29.7902 39.7263 30.6771 39.6792C32.6156 39.5969 34.1334 37.9816 34.0951 36.0418L34.2681 22.312C34.3186 20.7648 33.714 19.2681 32.603 18.1902C31.4919 17.1122 29.9776 16.5531 28.4326 16.6504C25.11 16.8861 22.5147 19.6154 22.4464 22.9456L22.2695 37.4961C22.3077 39.5008 23.1687 41.4016 24.6504 42.7524C26.1322 44.1032 28.1042 44.7852 30.1039 44.6383C34.7114 44.2643 38.2741 40.4397 38.3208 35.8173L38.4826 22.079" stroke="black" stroke-width="1.5" stroke-linecap="round" stroke-linejoin="round"/>
</svg>
