<svg width="24" height="24" viewBox="0 0 24 24" fill="none" xmlns="http://www.w3.org/2000/svg">
<path d="M14.3391 8.53078C14.046 8.23813 14.0456 7.76326 14.3382 7.47012C14.6309 7.17698 15.1057 7.17658 15.3989 7.46922L14.869 8L14.3391 8.53078ZM19.5299 11.5932C19.823 11.8859 19.8234 12.3607 19.5308 12.6539C19.2381 12.947 18.7633 12.9474 18.4701 12.6548L19 12.124L19.5299 11.5932ZM18.4868 11.5771C18.7889 11.2936 19.2635 11.3088 19.5469 11.6108C19.8304 11.9129 19.8152 12.3875 19.5132 12.6709L19 12.124L18.4868 11.5771ZM15.3822 16.5469C15.0801 16.8304 14.6055 16.8152 14.3221 16.5132C14.0386 16.2111 14.0538 15.7365 14.3558 15.4531L14.869 16L15.3822 16.5469ZM19 11.374C19.4142 11.374 19.75 11.7098 19.75 12.124C19.75 12.5382 19.4142 12.874 19 12.874V12.124V11.374ZM8.63 12.124V12.874L8.62772 12.874L8.63 12.124ZM6.0674 13.1766L5.53861 12.6447V12.6447L6.0674 13.1766ZM5.75 15.7351C5.74885 16.1493 5.41214 16.4841 4.99793 16.483C4.58372 16.4819 4.24886 16.1451 4.25 15.7309L5 15.733L5.75 15.7351ZM14.869 8L15.3989 7.46922L19.5299 11.5932L19 12.124L18.4701 12.6548L14.3391 8.53078L14.869 8ZM19 12.124L19.5132 12.6709L15.3822 16.5469L14.869 16L14.3558 15.4531L18.4868 11.5771L19 12.124ZM19 12.124V12.874H8.63V12.124V11.374H19V12.124ZM8.63 12.124L8.62772 12.874C7.86667 12.8717 7.13589 13.1718 6.59619 13.7084L6.0674 13.1766L5.53861 12.6447C6.36048 11.8276 7.47334 11.3705 8.63228 11.374L8.63 12.124ZM6.0674 13.1766L6.59619 13.7084C6.05649 14.245 5.7521 14.974 5.75 15.7351L5 15.733L4.25 15.7309C4.2532 14.572 4.71674 13.4618 5.53861 12.6447L6.0674 13.1766Z" fill="black"/>
</svg>
