<svg width="27" height="26" viewBox="0 0 27 26" fill="none" xmlns="http://www.w3.org/2000/svg">
<path d="M24.8838 11.25C24.8838 11.6642 25.2196 12 25.6338 12C26.048 12 26.3838 11.6642 26.3838 11.25H24.8838ZM1.1338 18.25L1.8838 18.251V18.25H1.1338ZM1.92091 22.8816C2.16896 23.2134 2.63897 23.2812 2.97069 23.0331C3.30242 22.7851 3.37024 22.3151 3.12219 21.9834L1.92091 22.8816ZM26.3838 11.25C26.3838 10.8358 26.048 10.5 25.6338 10.5C25.2196 10.5 24.8838 10.8358 24.8838 11.25H26.3838ZM8.1338 25.25V24.5H8.13332L8.1338 25.25ZM3.12329 21.9848C2.87605 21.6525 2.40621 21.5835 2.07388 21.8308C1.74155 22.078 1.67257 22.5478 1.91981 22.8802L3.12329 21.9848ZM26.1375 11.8056C26.4444 11.5274 26.4677 11.0531 26.1894 10.7463C25.9112 10.4394 25.4369 10.4161 25.1301 10.6944L26.1375 11.8056ZM17.4088 18.7068L16.905 18.1511L16.9 18.1558L17.4088 18.7068ZM16.0778 19.1652L16.0162 19.9126H16.0162L16.0778 19.1652ZM14.8398 18.495L15.432 18.0348L15.4316 18.0343L14.8398 18.495ZM11.324 13.9782L11.9159 13.5176L11.9148 13.5161L11.324 13.9782ZM9.90961 13.3069L9.89414 12.557L9.90961 13.3069ZM8.52405 14.036L7.91477 13.5986L7.91392 13.5998L8.52405 14.036ZM1.91142 21.9963C1.67053 22.3333 1.74841 22.8017 2.08538 23.0426C2.42234 23.2835 2.89079 23.2056 3.13168 22.8687L1.91142 21.9963ZM26.3838 11.25V7.75H24.8838V11.25H26.3838ZM26.3838 7.75C26.3838 3.46979 22.914 0 18.6338 0V1.5C22.0856 1.5 24.8838 4.29822 24.8838 7.75H26.3838ZM18.6338 0H8.1338V1.5H18.6338V0ZM8.1338 0C3.85359 0 0.383795 3.46979 0.383795 7.75H1.8838C1.8838 4.29822 4.68202 1.5 8.1338 1.5V0ZM0.383795 7.75V18.25H1.8838V7.75H0.383795ZM0.383796 18.249C0.381559 19.9188 0.920907 21.5444 1.92091 22.8816L3.12219 21.9834C2.31652 20.9059 1.88199 19.5963 1.88379 18.251L0.383796 18.249ZM24.8838 11.25V18.25H26.3838V11.25H24.8838ZM24.8838 18.25C24.8838 21.7018 22.0856 24.5 18.6338 24.5V26C22.914 26 26.3838 22.5302 26.3838 18.25H24.8838ZM18.6338 24.5H8.1338V26H18.6338V24.5ZM8.13332 24.5C6.15949 24.5013 4.30146 23.5685 3.12329 21.9848L1.91981 22.8802C3.38122 24.8445 5.68592 26.0016 8.13427 26L8.13332 24.5ZM25.1301 10.6944L16.9051 18.1511L17.9125 19.2624L26.1375 11.8056L25.1301 10.6944ZM16.9 18.1558C16.6943 18.3457 16.4184 18.4407 16.1394 18.4177L16.0162 19.9126C16.7137 19.9701 17.4034 19.7326 17.9176 19.2577L16.9 18.1558ZM16.1394 18.4177C15.8604 18.3947 15.6038 18.2558 15.432 18.0348L14.2476 18.9552C14.6771 19.5079 15.3186 19.8551 16.0162 19.9126L16.1394 18.4177ZM15.4316 18.0343L11.9159 13.5176L10.7322 14.4389L14.248 18.9557L15.4316 18.0343ZM11.9148 13.5161C11.4298 12.8962 10.6811 12.5408 9.89414 12.557L9.92507 14.0567C10.2399 14.0502 10.5393 14.1924 10.7333 14.4404L11.9148 13.5161ZM9.89414 12.557C9.10716 12.5733 8.37379 12.9592 7.91477 13.5986L9.13332 14.4734C9.31693 14.2176 9.61028 14.0632 9.92507 14.0567L9.89414 12.557ZM7.91392 13.5998L1.91142 21.9963L3.13168 22.8687L9.13418 14.4722L7.91392 13.5998Z" fill="black"/>
</svg>
