<svg width="43" height="42" viewBox="0 0 43 42" fill="none" xmlns="http://www.w3.org/2000/svg">
<path fill-rule="evenodd" clip-rule="evenodd" d="M28.676 15.75H14.0915C13.2864 15.75 12.6338 16.4027 12.6338 17.2078V28.875C12.6338 31.2912 14.5925 33.25 17.0088 33.25H25.7588C26.9191 33.25 28.0319 32.7891 28.8524 31.9686C29.6729 31.1481 30.1338 30.0353 30.1338 28.875V17.2078C30.1338 16.4027 29.4811 15.75 28.676 15.75Z" stroke="black" stroke-width="1.5" stroke-linecap="round" stroke-linejoin="round"/>
<path fill-rule="evenodd" clip-rule="evenodd" d="M26.6338 12.25L25.3668 9.71775C25.0706 9.12497 24.465 8.75035 23.8023 8.75H18.9653C18.3026 8.75035 17.697 9.12497 17.4008 9.71775L16.1338 12.25H26.6338Z" stroke="black" stroke-width="1.5" stroke-linecap="round" stroke-linejoin="round"/>
<path d="M19.2165 21.5828C19.2165 21.1685 18.8808 20.8328 18.4665 20.8328C18.0523 20.8328 17.7165 21.1685 17.7165 21.5828H19.2165ZM17.7165 27.4155C17.7165 27.8297 18.0523 28.1655 18.4665 28.1655C18.8808 28.1655 19.2165 27.8297 19.2165 27.4155H17.7165ZM25.051 21.5828C25.051 21.1685 24.7153 20.8328 24.301 20.8328C23.8868 20.8328 23.551 21.1685 23.551 21.5828H25.051ZM23.551 27.4155C23.551 27.8297 23.8868 28.1655 24.301 28.1655C24.7153 28.1655 25.051 27.8297 25.051 27.4155H23.551ZM26.6338 11.5C26.2196 11.5 25.8838 11.8358 25.8838 12.25C25.8838 12.6642 26.2196 13 26.6338 13V11.5ZM30.1338 13C30.548 13 30.8838 12.6642 30.8838 12.25C30.8838 11.8358 30.548 11.5 30.1338 11.5V13ZM16.1338 13C16.548 13 16.8838 12.6642 16.8838 12.25C16.8838 11.8358 16.548 11.5 16.1338 11.5V13ZM12.6338 11.5C12.2196 11.5 11.8838 11.8358 11.8838 12.25C11.8838 12.6642 12.2196 13 12.6338 13V11.5ZM17.7165 21.5828V27.4155H19.2165V21.5828H17.7165ZM23.551 21.5828V27.4155H25.051V21.5828H23.551ZM26.6338 13H30.1338V11.5H26.6338V13ZM16.1338 11.5H12.6338V13H16.1338V11.5Z" fill="black"/>
</svg>
