<svg width="12" height="16" viewBox="0 0 12 16" fill="none" xmlns="http://www.w3.org/2000/svg">
<path d="M3.727 6.606C3.31279 6.606 2.977 6.94179 2.977 7.356C2.977 7.77021 3.31279 8.106 3.727 8.106V7.356V6.606ZM8.273 8.106C8.68722 8.106 9.023 7.77021 9.023 7.356C9.023 6.94179 8.68722 6.606 8.273 6.606V7.356V8.106ZM9.023 12.492C9.023 12.0778 8.68722 11.742 8.273 11.742C7.85879 11.742 7.523 12.0778 7.523 12.492H8.273H9.023ZM7.523 15C7.523 15.4142 7.85879 15.75 8.273 15.75C8.68722 15.75 9.023 15.4142 9.023 15H8.273H7.523ZM2.977 15C2.977 15.4142 3.31279 15.75 3.727 15.75C4.14122 15.75 4.477 15.4142 4.477 15H3.727H2.977ZM4.477 12.492C4.477 12.0778 4.14122 11.742 3.727 11.742C3.31279 11.742 2.977 12.0778 2.977 12.492H3.727H4.477ZM7.97701 3.892C7.97701 4.30621 8.31279 4.642 8.72701 4.642C9.14122 4.642 9.47701 4.30621 9.47701 3.892H8.72701H7.97701ZM8.72701 3.8L7.97701 3.79125V3.8H8.72701ZM6 1L6.01106 0.250082C6.00369 0.249973 5.99632 0.249973 5.98895 0.250082L6 1ZM3.273 3.8H4.02306L4.02295 3.79125L3.273 3.8ZM2.523 3.893C2.523 4.30721 2.85879 4.643 3.273 4.643C3.68722 4.643 4.023 4.30721 4.023 3.893H3.273H2.523ZM8.5432 4.61988C8.94464 4.72194 9.35282 4.47925 9.45488 4.0778C9.55694 3.67636 9.31425 3.26819 8.91281 3.16612L8.728 3.893L8.5432 4.61988ZM8.143 3.8L8.19272 3.05165C8.17617 3.05055 8.15959 3.05 8.143 3.05V3.8ZM3.857 3.8V3.05C3.84031 3.05 3.82363 3.05056 3.80697 3.05167L3.857 3.8ZM3.08812 3.16615C2.68669 3.26825 2.44404 3.67645 2.54615 4.07789C2.64826 4.47932 3.05646 4.72196 3.45789 4.61985L3.273 3.893L3.08812 3.16615ZM8.89922 3.1628C8.49594 3.06825 8.09237 3.31851 7.99781 3.72179C7.90325 4.12506 8.15352 4.52864 8.55679 4.6232L8.72801 3.893L8.89922 3.1628ZM10.978 6.334L11.722 6.23928C11.7213 6.23375 11.7205 6.22823 11.7197 6.22272L10.978 6.334ZM11 6.685L10.25 6.68392V6.685H11ZM11 12.108L11.7496 12.132C11.7499 12.124 11.75 12.116 11.75 12.108H11ZM7.92301 15L7.94547 14.2503C7.93798 14.2501 7.93049 14.25 7.92301 14.25V15ZM4.077 15V14.25C4.06951 14.25 4.06203 14.2501 4.05454 14.2503L4.077 15ZM1 12.108H0.250004C0.250004 12.116 0.250133 12.124 0.250389 12.132L1 12.108ZM1 6.685H1.75001L1.75 6.68365L1 6.685ZM1.022 6.333L0.280306 6.22172C0.279479 6.22723 0.278714 6.23275 0.27801 6.23828L1.022 6.333ZM3.44322 4.6222C3.84649 4.52764 4.09676 4.12406 4.0022 3.72079C3.90764 3.31751 3.50407 3.06725 3.10079 3.1618L3.272 3.892L3.44322 4.6222ZM3.727 7.356V8.106H8.273V7.356V6.606H3.727V7.356ZM8.273 12.492H7.523V15H8.273H9.023V12.492H8.273ZM3.727 15H4.477V12.492H3.727H2.977V15H3.727ZM8.72701 3.892H9.47701V3.8H8.72701H7.97701V3.892H8.72701ZM8.72701 3.8L9.47695 3.80875C9.49958 1.87017 7.94957 0.278666 6.01106 0.250082L6 1L5.98895 1.74992C7.10091 1.76632 7.99003 2.67924 7.97706 3.79125L8.72701 3.8ZM6 1L5.98895 0.250082C4.05044 0.278666 2.50043 1.87017 2.52306 3.80875L3.273 3.8L4.02295 3.79125C4.00998 2.67924 4.8991 1.76632 6.01106 1.74992L6 1ZM3.273 3.8H2.523V3.893H3.273H4.023V3.8H3.273ZM8.728 3.893L8.91281 3.16612C8.67677 3.10611 8.43574 3.0678 8.19272 3.05165L8.143 3.8L8.09329 4.54835C8.24512 4.55844 8.39572 4.58238 8.5432 4.61988L8.728 3.893ZM8.143 3.8V3.05H3.857V3.8V4.55H8.143V3.8ZM3.857 3.8L3.80697 3.05167C3.56437 3.06789 3.32376 3.10621 3.08812 3.16615L3.273 3.893L3.45789 4.61985C3.60512 4.5824 3.75546 4.55846 3.90704 4.54833L3.857 3.8ZM8.72801 3.893L8.55679 4.6232C9.43681 4.82954 10.1022 5.5514 10.2363 6.44528L10.978 6.334L11.7197 6.22272C11.4945 4.72159 10.3771 3.50932 8.89922 3.1628L8.72801 3.893ZM10.978 6.334L10.234 6.42872C10.2448 6.51336 10.2501 6.5986 10.25 6.68392L11 6.685L11.75 6.68608C11.7502 6.5367 11.7409 6.38746 11.722 6.23928L10.978 6.334ZM11 6.685H10.25V12.108H11H11.75V6.685H11ZM11 12.108L10.2504 12.084C10.2109 13.3181 9.17969 14.2873 7.94547 14.2503L7.92301 15L7.90054 15.7497C9.96161 15.8114 11.6836 14.1929 11.7496 12.132L11 12.108ZM7.92301 15V14.25H4.077V15V15.75H7.92301V15ZM4.077 15L4.05454 14.2503C2.82032 14.2873 1.78914 13.3181 1.74962 12.084L1 12.108L0.250389 12.132C0.31638 14.1929 2.0384 15.8114 4.09947 15.7497L4.077 15ZM1 12.108H1.75V6.685H1H0.250004V12.108H1ZM1 6.685L1.75 6.68365C1.74985 6.59809 1.75519 6.5126 1.766 6.42772L1.022 6.333L0.27801 6.23828C0.259091 6.38688 0.249736 6.53655 0.250006 6.68635L1 6.685ZM1.022 6.333L1.7637 6.44428C1.89782 5.5504 2.5632 4.82854 3.44322 4.6222L3.272 3.892L3.10079 3.1618C1.62294 3.50832 0.50553 4.72059 0.280306 6.22172L1.022 6.333Z" fill="black"/>
</svg>
